# xmcd
#
# Track frame offsets: 
#        150
#        14368
#        30671
#        52857
#        73322
#        85687
#        105627
#
# Disc length: 1628 seconds
#
# Revision: 0
# Processed by: cddbd v1.5.2PL0 Copyright (c) Steve Scherf et al.
# Submitted via: ExactAudioCopy v1.1
#
DISCID=50065a07
DTITLE=Audrey et Les Faces B - Rendez-vous sous la pluie
DYEAR=2013
DGENRE=Swing
TTITLE0=Slumming On Park Avenue
TTITLE1=So What
TTITLE2=Ophelia
TTITLE3='Round Midnight
TTITLE4=Rendez-vous sous la pluie
TTITLE5=Daddy Daddy
TTITLE6=Ice Cream
EXTD=
EXTT0=
EXTT1=
EXTT2=
EXTT3=
EXTT4=
EXTT5=
EXTT6=
PLAYORDER=
